<?xml version="1.0" encoding="utf-8"?>
<!-- Generator: Adobe Illustrator 28.3.0, SVG Export Plug-In . SVG Version: 6.00 Build 0)  -->
<svg version="1.1" id="Calque_1" xmlns="http://www.w3.org/2000/svg" xmlns:xlink="http://www.w3.org/1999/xlink" x="0px" y="0px"
	 viewBox="0 0 920 405.3" style="enable-background:new 0 0 920 405.3;" xml:space="preserve">
<g>
	<path d="M0,183.6c8.1-15.8,20.3-22,39.3-18.5c23.8,4.5,47.7,9.3,71.2,15.1c36.7,8.9,73.1,18.7,109.7,28.1c3.7,1,7.5,1.6,11,3.1
		c9,3.8,17.4,2.4,26.4-0.7c29.9-10.4,59.9-20.2,89.9-30.2c1-0.3,2-0.9,3.9-1.7c-71.1-16.2-141.4-32.2-213.1-48.6
		c15-6.3,28.6-12,42.2-17.7c4.1-1.7,8.5-3,12.4-5.2c11-6,22.7-7.1,35.1-6.9c53.2,1.1,106.5,1.6,159.7,2.3
		c46.6,0.7,93.2,1.4,139.8,1.9c3.7,0,7.6-0.7,11.1-2C594.9,81.1,651,59.4,707.2,37.8c23.7-9.1,47.3-18.7,71.4-26.8
		c32.8-11,66.6-14.4,100.8-7.3c14.4,3,28,7.9,35.8,22c1.9,3.5,3.2,7.2,4.8,10.9c0,3,0,6,0,9c-7.7,18.8-23.4,28.6-40.9,36.6
		c-55.6,25.4-113,46.1-170.3,67c-40,14.6-80.2,28.5-120.3,42.9c-2.1,0.8-4.4,2.5-5.7,4.3c-35.7,52.4-71.4,104.8-106.7,157.4
		c-5.3,7.9-11.4,13.2-20.6,16.5c-30.1,10.7-59.8,22.2-89.8,33.4c-2,0.8-4.3,0.9-7.5,1.6C381.4,352.6,404,301,427,248.4
		c-8.1,2.4-15.4,4.6-22.7,6.9c-44.7,13.6-89.4,27.1-134,40.9c-5.9,1.8-11.2,2-17.3,0.2c-59.1-16.7-117.5-35.6-174.2-59.4
		c-21-8.8-41.2-19.4-61.6-29.6c-7.3-3.7-13.7-8.9-17.2-16.8C0,188.3,0,185.9,0,183.6z"/>
</g>
</svg>
