<svg width="30" height="30" viewBox="0 0 30 30" fill="none" xmlns="http://www.w3.org/2000/svg">
<rect width="30" height="30" rx="12" fill="#012E4D"/>
<g clip-path="url(#clip0_3218_4238)">
<path d="M14.6707 10.4674C14.6271 10.4256 14.5691 10.4023 14.5087 10.4023C14.4483 10.4023 14.3903 10.4256 14.3467 10.4674L8.95312 15.6198C8.93022 15.6417 8.912 15.668 8.89956 15.6972C8.88712 15.7263 8.88073 15.7577 8.88076 15.7894L8.87988 20.6252C8.87988 20.8738 8.97865 21.1123 9.15447 21.2881C9.33029 21.4639 9.56874 21.5627 9.81738 21.5627H12.6328C12.7571 21.5627 12.8764 21.5133 12.9643 21.4254C13.0522 21.3375 13.1016 21.2182 13.1016 21.0939V17.1095C13.1016 17.0474 13.1263 16.9878 13.1702 16.9438C13.2142 16.8999 13.2738 16.8752 13.3359 16.8752H15.6797C15.7418 16.8752 15.8015 16.8999 15.8454 16.9438C15.8894 16.9878 15.9141 17.0474 15.9141 17.1095V21.0939C15.9141 21.2182 15.9634 21.3375 16.0514 21.4254C16.1393 21.5133 16.2585 21.5627 16.3828 21.5627H19.1971C19.4457 21.5627 19.6842 21.4639 19.86 21.2881C20.0358 21.1123 20.1346 20.8738 20.1346 20.6252V15.7894C20.1346 15.7577 20.1282 15.7263 20.1158 15.6972C20.1033 15.668 20.0851 15.6417 20.0622 15.6198L14.6707 10.4674Z" fill="white"/>
<path d="M21.3899 14.6538L19.1985 12.5573V9.37598C19.1985 9.25166 19.1492 9.13243 19.0612 9.04452C18.9733 8.95661 18.8541 8.90723 18.7298 8.90723H17.3235C17.1992 8.90723 17.08 8.95661 16.9921 9.04452C16.9042 9.13243 16.8548 9.25166 16.8548 9.37598V10.3135L15.1579 8.69102C14.9991 8.53047 14.763 8.43848 14.5078 8.43848C14.2535 8.43848 14.018 8.53047 13.8592 8.69131L7.62775 14.6532C7.44552 14.829 7.42267 15.1182 7.58849 15.3086C7.63013 15.3567 7.68111 15.3958 7.73834 15.4235C7.79557 15.4512 7.85784 15.467 7.92137 15.4699C7.9849 15.4728 8.04835 15.4628 8.10788 15.4404C8.1674 15.418 8.22174 15.3837 8.26759 15.3396L14.3467 9.53066C14.3903 9.48894 14.4483 9.46565 14.5087 9.46565C14.5691 9.46565 14.6271 9.48894 14.6707 9.53066L20.7504 15.3396C20.84 15.4255 20.9599 15.4724 21.084 15.47C21.208 15.4676 21.3261 15.4161 21.4122 15.3268C21.5921 15.1404 21.5772 14.8328 21.3899 14.6538Z" fill="white"/>
</g>
<defs>
<clipPath id="clip0_3218_4238">
<rect width="15" height="15" fill="white" transform="translate(7.00781 7.5)"/>
</clipPath>
</defs>
</svg>
