<?xml version="1.0" encoding="utf-8"?>
<!-- Generator: Adobe Illustrator 28.3.0, SVG Export Plug-In . SVG Version: 6.00 Build 0)  -->
<svg version="1.1" id="Calque_1" xmlns="http://www.w3.org/2000/svg" xmlns:xlink="http://www.w3.org/1999/xlink" x="0px" y="0px"
	 viewBox="0 0 225 225" style="enable-background:new 0 0 225 225;" xml:space="preserve">
<g>
	<path d="M109,0c2.3,0,4.7,0,7,0c13.4,5.3,17,10.6,17,25.1c0,20.3,0,40.6,0,60.9c0,1.8,0,3.6,0,5.9c2.3,0,4.1,0,5.9,0
		c20.1,0,40.3,0,60.4,0c15.1,0,20.2,3.5,25.6,17.1c0,2.3,0,4.7,0,7c-5.4,13.5-10.6,17-25.2,17c-19.8,0-39.6,0-59.4,0
		c-2.3,0-4.6,0-7.3,0c0,2.3,0,4.1,0,5.9c0,20.3,0,40.6,0,60.9c0,14.6-3.6,19.8-17,25.1c-2.3,0-4.7,0-7,0c-13.5-5.2-17-10.5-17-25.1
		c0-18.8,0-37.6,0-56.5c0-3.3,0-6.6,0-10.4c-2.3,0-4.1,0-5.8,0c-20.3,0-40.6,0-61,0c-14.7,0-19.8-3.5-25.2-17c0-2.3,0-4.7,0-7
		c5.4-13.6,10.5-17.1,25.1-17.1c20.3,0,40.6,0,61,0c1.8,0,3.6,0,5.9,0c0-2.3,0-4.1,0-5.9c0-20.3,0-40.6,0-61C92,10.5,95.5,5.3,109,0
		z"/>
</g>
</svg>
