<?xml version="1.0" encoding="utf-8"?>
<!-- Generator: Adobe Illustrator 28.3.0, SVG Export Plug-In . SVG Version: 6.00 Build 0)  -->
<svg version="1.1" id="Calque_1" xmlns="http://www.w3.org/2000/svg" xmlns:xlink="http://www.w3.org/1999/xlink" x="0px" y="0px"
	 viewBox="0 0 429 135" style="enable-background:new 0 0 429 135;" xml:space="preserve">
<g>
	<path d="M429,20c-6.4,1.7-7.5,7.3-8.1,12.4C419.7,42,414,47.7,405.6,50c-15,4.2-30.3,7.6-45.6,11.1c-14,3.3-27.9,6.5-42,9.4
		c-10.8,2.3-21.7,5.4-33,3.1c-6.9-1.4-8.9-3.7-9.1-10.7c-0.1-7.7-7.2-13.2-17.6-13.9c-14.4-0.9-28.4,1.6-42.3,5.2
		c-17.1,4.5-34.2,8.8-51.4,12.8c-5.6,1.3-11.4,1.6-17.2,1.8c-5.3,0.2-7.8-2.8-6.4-7.9c1.3-4.8-0.9-8-5-8.4
		c-8.5-0.8-17.3-1.4-25.7-0.3c-24.8,3.2-48.3,11.8-72.1,19.4c-3.1,1-6.4,1.3-9.6,2c-0.3-0.7-0.5-1.3-0.8-2c1.1-1,2.1-2.3,3.3-2.9
		C45.2,62.8,58.8,56.2,72.9,51c17.9-6.6,36.1-12.1,55.5-11.7c3.4,0.1,7.2,0.7,9.9,2.5c2.2,1.4,4.3,4.9,4.2,7.5c0,7,1.9,9.6,8.6,8.6
		c8.1-1.3,16.3-2.6,24.3-4.5c20.1-4.8,39.9-10.5,60.1-14.8c11-2.4,22.3-3.2,33.2,1.7c5.3,2.4,8,6.1,8.4,11.7
		c0.5,7.9,2.6,9.8,10.7,10.4c11.6,0.8,22.7-1.6,33.9-3.8c18-3.6,35.7-8.5,54.3-8.5c2.9,0,5.8-1.3,8.7-2.5
		C370.8,42.6,364.6,32,361,18c3.7,1.6,6.5,2.9,9,4.1c0-7.6,0-14.8,0-22.1c0.7,0,1.3,0,2,0c6.2,6,11.9,12.6,18.7,17.9
		c5.9,4.6,13.1,7.3,21.1,5.7c0.5-7.5,6.3-10.7,13-7.5c1.3,0.6,2.8,0.6,4.2,0.8C429,18,429,19,429,20z"/>
	<path d="M150,135c-6.3-4.4-6.4-11.8-8.7-18.1c-3.3-9-6.1-18.1-9-27.2c-0.6-1.9-2.5-4.4,1-5.1c2.6-0.6,5.8-1.5,7,2.4
		c2.4,7.5,4.8,15.1,7.2,22.6c1.1,3.4,2.2,6.8,4.5,10.4c0.9-2.5,2-4.9,2.8-7.4c2.4-7.7,4.9-15.4,7-23.2c1.4-5.1,4.4-6.1,9.6-4.1
		c-1,3.6-2,7.2-3.1,10.7c-3.3,10.2-6.4,20.4-10,30.5c-1.1,3.1-3.4,5.8-5.2,8.6C152,135,151,135,150,135z"/>
	<path d="M55,135c-0.4-0.5-0.7-1.2-1.2-1.5c-10.9-5.1-13.7-9.2-13-21.2c1.3-24.1,22.7-32.9,39.3-29.1c1.6,0.4,2.7,2.7,4,4
		c-1.9,0.8-4,2.5-5.7,2.2c-8.1-1.4-15.7-1.2-21.4,5.5c-6.2,7.3-8.2,16-5.7,25.2c1.9,7.1,10.1,10.1,19.7,7.9c1.8-0.4,3.7-0.6,5.5-0.8
		c0.3,0.5,0.6,1,0.8,1.5c-2.1,2-4.2,4.1-6.3,6.1C65.7,135,60.3,135,55,135z"/>
	<path d="M252,135c-2.3-3-5.8-5.8-6.5-9.2c-1.6-7.5,4.4-13.2,13.2-13.8c1.6-0.1,3.3-0.2,4.8-0.2c0.9-7.1-1.1-8.9-7.6-7.3
		c-2.1,0.5-4.1,1.4-6.1,2.1c-3.1-3.4-2.9-6.2,1.3-7.2c4.6-1.1,9.5-1.9,14.1-1.4c5.2,0.5,6.4,5.3,6.5,9.8c0.2,5-0.2,10,0,15
		c0.1,2.8,0.8,5.6,1.4,9.4c-0.3,0.3-1.3,1.6-2.3,2.8C264.7,135,258.3,135,252,135z M263.6,116.9c-3.2,1.5-6,2.5-8.2,4.2
		c-1,0.8-1.4,3.2-1.1,4.7c0.2,0.9,2.4,2.3,3.3,2.1c2.8-0.7,7.5-0.2,5.6-5.8C262.7,121,263.3,119.6,263.6,116.9z"/>
	<path d="M285,135c-0.4-2.1-1-4.1-1-6.2c-0.1-9.2,0-18.5,0-28.8c1.2,0,3.2,0.1,5.2,0c1.4-0.1,2.7-0.7,4.1-0.9
		c3.9-0.5,7.9-1.6,11.7-1c5.3,0.8,7.3,5.4,7.4,10.3c0.2,7.1,0.5,14.3,0.1,21.4c-0.1,1.8-2.2,3.5-3.4,5.2c-1.7,0-3.3,0-5,0
		c-0.3-2.6-0.9-5.2-1-7.8c-0.1-6-0.3-12,0-18c0.3-4.9-3.2-3.9-5.8-4.2c-3.1-0.4-5.3,0.9-5.2,4.3c0,6.1,0.5,12.3,0.1,18.4
		c-0.1,2.5-2.1,4.8-3.2,7.2C287.7,135,286.3,135,285,135z"/>
	<path d="M183,135c-2.8-2.5-6.8-4-7.1-8.8c-0.6-8.1,4-13.3,12.9-14.2c1.5-0.1,2.9-0.2,4.4-0.2c1.5-7.3,0.1-8.8-6.8-7.4
		c-1.4,0.3-2.8,1.2-4.2,1.3c-1.2,0.1-3.5-0.5-3.5-1c-0.2-1.4,0.1-3.6,1-4.2c5.5-3.6,11.8-4.1,17.6-1.9c2.3,0.9,4.3,5.4,4.6,8.5
		c0.6,5.2-0.3,10.5-0.4,15.8c0,1.6-0.2,3.8,0.7,4.7c2.8,2.8,1.4,5-0.1,7.4C195.7,135,189.3,135,183,135z M192.6,118.2
		c-5.6-0.1-9,1.8-8.4,5.2c0.3,1.7,2.7,4.2,4.3,4.4C192.5,128.1,193.4,125.6,192.6,118.2z"/>
	<path d="M365,135c-3.7-3.6-8.5-6.5-8.6-12.5c0-4.7-0.4-9.7,0.7-14.2c2.1-8.6,11.2-13,19.6-10.3c5.7,1.8,10.4,12.8,6.8,17.5
		c-1.5,2-5.5,2.7-8.5,3.1c-3.4,0.5-6.9,0.1-10.3,0.1c-0.6,8.5,3.2,10.2,17.6,8.1c2.4,5.5-3.5,5.5-5.4,8.1C373,135,369,135,365,135z
		 M375.8,112c-0.4-3.9,1-8.5-5.1-8c-3.7,0.3-5.7,4-4.9,9.2C369.1,112.9,372.4,112.4,375.8,112z"/>
	<path d="M0,129c2.1-0.6,4.2-1.7,6.4-1.9c8.5-0.6,11.6-3.4,13.3-11.9c1.7-8.5,3.6-17,5.1-25.6c0.7-3.9,2.2-6.5,6.3-5.7
		c4.5,0.9,2.6,4.2,2,7.1c-2.1,9.7-4,19.4-5.8,29.1c-1.3,6.7-4.4,11.7-11.7,13c-0.9,0.2-1.7,1.2-2.6,1.9c-4.3,0-8.7,0-13,0
		C0,133,0,131,0,129z"/>
	<path d="M397,135c-1.3-2.3-6.7-1.7-4.7-6.1c1.8-4.2,4.8-0.3,7.2-0.7c2.6-0.4,6.2-0.6,7.3-2.3c1.7-2.7-0.8-5-3.5-6.6
		c-2.6-1.5-5.2-3.2-7.2-5.3c-2.5-2.5-4.8-5.2-3.4-9.6c1.4-4.4,4.5-6.1,8.3-6.6c3.2-0.4,6.7-0.4,9.9,0.3c1.6,0.3,2.7,2.6,4,4.1
		c-1.8,0.6-3.6,1.5-5.4,1.7c-1.6,0.2-3.3-0.9-4.8-0.6c-1.4,0.3-2.8,1.6-3.6,2.8c-0.3,0.5,0.8,2.4,1.7,3.1c2.6,2.1,5.4,3.8,8,5.8
		c8.1,6.5,7.3,14-1.9,18.6c-0.7,0.3-1.3,0.9-2,1.3C403.7,135,400.3,135,397,135z"/>
	<path d="M222,135c-3.9-3.3-8.7-5.8-9.5-11.8c-1.3-10.6-0.2-21.1,10.4-24.6c3.7-1.2,8.2-0.8,12.1-0.2c3.6,0.6,5.2,2.9,1.9,6.5
		c-5.2-1.9-10.8-3.5-14.5,2.4c-3.2,5.2-3.6,11.2-0.6,16.5c3.4,6.1,9.4,5,15.1,3.4c3,4.3-1.8,5.2-3,7.7C230,135,226,135,222,135z"/>
	<path d="M332,135c-1.8-1.4-3.6-2.6-5.3-4.1c-6.7-6.3-7.9-28.2,6.5-32.3c4.1-1.2,9,0.1,13.5,0.6c0.7,0.1,1.2,2.4,1.8,3.7
		c-1.3,0.5-2.9,1.6-3.9,1.3c-5-1.6-9.2-1.2-12.2,3.4c-3.1,4.9-2.8,13.7,0.4,17.4c4.1,4.8,9.2,3.4,14.3,2.3c2.9,4.3-1.8,5.3-3,7.6
		C340,135,336,135,332,135z"/>
	<path d="M106,83c3.3,0.2,6.7,0,9.9,0.8c8.9,2,12,8.9,8.6,17.5c-3.3,8.4-10.1,11.9-18.5,12.8c-10.1,1-10.1,0.8-11.4,11.2
		c-0.3,2.1-0.5,4.7-1.8,6c-1.3,1.3-4,1.7-5.9,1.5c-0.9-0.1-2.3-2.8-2.1-4.1c2.5-12.7,5.1-25.4,7.9-38.1c1.6-7.2,1.8-7.3,9.2-7.3
		c1.3,0,2.7,0,4,0C106,83.2,106,83.1,106,83z M98.2,107.9c3.6-0.4,7.1-0.3,10.3-1.2c4.6-1.4,7.1-5.4,7.2-10c0.1-2.1-1.6-4.7-3.3-6.3
		c-3.8-3.4-9.3-1.3-10.6,3.7C100.8,98.6,99.5,103.1,98.2,107.9z"/>
</g>
</svg>
